<svg xmlns="http://www.w3.org/2000/svg" viewBox="102.505 64.07000350952148 370.00001525878906 364.1949977874756"> <svg xmlns="http://www.w3.org/2000/svg" xmlns:xlink="http://www.w3.org/1999/xlink" version="1.1" id="Layer_1" x="172.505" y="134.07000350952148" viewBox="218.49998474121094 281 562.800048828125 438" xml:space="preserve" height="178.99305725097656" width="230.00001525878906" preserveAspectRatio="xMinYMin" enable-background="new 0 0 1000 1000" style="overflow: visible;"><path id="XMLID_6_" class="st0" d="M700.7,564c-13.9,0-24.2-5.3-31-17.8c-5.8-10.8-12.1-21.2-18.3-31.8c-5.4-9.3-5.8-18.5-0.2-28   c7-11.9,13.6-24,20.8-35.8c5.8-9.5,14.3-14,25.7-13.8c24.9,0.3,49.8,0.3,74.7,0.3c2.9,0,5.7-0.4,8.9-0.7   c-16.2-37.4-31.2-43-60.3-41.8c-17.4,0.7-34.8,1.1-52.1,0.3c-23.3-1.2-39.6,8.4-49.4,29.2c-8,16.9-19.9,28.3-37.8,32.6h-89.8v0.2   h-82.4c-2.5-8.8-10.6-15.2-20.2-15.2c-11.6,0-21.1,9.4-21.1,21.1c0,11.6,9.5,21.1,21.1,21.1c9.6,0,17.7-6.5,20.2-15.2h88.7   c7.2,0,13.1,5.9,13.1,13.1v0c0,7.2-5.9,13.1-13.1,13.1H371.3l-36.3-37.8h-42c-2.5-8.5-10.4-14.6-19.6-14.6   c-11.3,0-20.5,9.2-20.5,20.5c0,11.3,9.2,20.5,20.5,20.5c9.2,0,17.1-6.2,19.6-14.6h37l25.1,26.2h-95.3c-2.5-8.8-10.6-15.2-20.2-15.2   c-11.6,0-21.1,9.4-21.1,21.1s9.5,21.1,21.1,21.1c9.6,0,17.7-6.5,20.2-15.2h130.6L365.8,532h-37c-2.5-8.5-10.3-14.6-19.6-14.6   c-11.3,0-20.5,9.2-20.5,20.5c0,11.3,9.2,20.5,20.5,20.5c9.3,0,17.1-6.2,19.6-14.7h42l35.9-37.4h92c7,0,12.6,5.7,12.6,12.6   c0,3.5-1.4,6.6-3.7,8.9c-2.3,2.3-5.4,3.7-8.9,3.7h-56.5c-2.5-8.8-10.6-15.2-20.2-15.2c-4.9,0-9.4,1.7-12.9,4.5   c-4.9,3.9-8.1,9.9-8.1,16.6c0,11.6,9.5,21.1,21.1,21.1c9.6,0,17.7-6.5,20.2-15.3h49.7v0.4l62.1,0.8c35.7-2.3,46.1,8.3,46.1,8.3   c7.8,10.1,16,19.9,23.3,30.3c10.1,14.2,22.9,22.4,40.7,22.3c20.5-0.1,41.1-0.8,61.6,0.4c25.8,1.4,43.8-10.7,54.4-41.5   C753.5,564,727.1,563.9,700.7,564z M389.3,472c-5.2,0-9.4-4.2-9.4-9.4c0-5.2,4.2-9.4,9.4-9.4c5.2,0,9.4,4.2,9.4,9.4   C398.8,467.7,394.5,472,389.3,472z M273.5,471.4c-4.9,0-8.9-4-8.9-8.8c0-4.9,4-8.8,8.9-8.8c4.9,0,8.8,4,8.8,8.8   C282.3,467.4,278.4,471.4,273.5,471.4z M239.7,509.8c-5.2,0-9.4-4.2-9.4-9.4c0-5.2,4.2-9.4,9.4-9.4c5.2,0,9.4,4.2,9.4,9.4   C249.1,505.6,244.9,509.8,239.7,509.8z M309.2,546.7c-4.9,0-8.8-4-8.8-8.9c0-4.9,4-8.8,8.8-8.8c4.9,0,8.8,4,8.8,8.8   C318,542.7,314.1,546.7,309.2,546.7z M421.9,546.7c-5.2,0-9.4-4.2-9.4-9.4c0-2.9,1.3-5.4,3.3-7.1c1.6-1.4,3.7-2.3,6.1-2.3   c3,0,5.7,1.4,7.4,3.6c1.3,1.6,2,3.6,2,5.8C431.4,542.5,427.1,546.7,421.9,546.7z" style="fill: #000000; fill-opacity: 1;"></path><path id="XMLID_14_" class="st1" d="M361.7,478.7c0.6-5.6,1.5-11.1,2.6-16.6c0.1-3.6,0.9-7,2.3-10.1C388,369.3,463.2,308,552.6,308   c65.4,0,123.3,32.9,158,83c3.3-0.1,6.7-0.2,10.3-0.4c2.4-0.1,4.6-0.2,6.7-0.2c5.7,0,10.8,0.4,15.5,1.4   c-9.6-16.9-21.5-32.6-35.6-46.6c-41.4-41.4-96.4-64.2-154.9-64.2c-58.5,0-113.5,22.8-154.9,64.2c-30.4,30.4-50.7,68.1-59.4,109.2   L361.7,478.7z" style="fill: #000000; fill-opacity: 1;"></path><path id="XMLID_15_" class="st1" d="M729.8,609.6C729.8,609.6,729.8,609.6,729.8,609.6c-1.4,0-2.8,0-4.2-0.1   c-4.7-0.3-9.5-0.4-14.9-0.5C676,659.1,618,692,552.6,692c-89.4,0-164.8-61.5-186.1-144.4h-27.8c8.9,40.3,29.1,77.3,59,107.2   c41.4,41.4,96.4,64.2,154.9,64.2c58.5,0,113.5-22.8,154.9-64.2c14.1-14.1,26.1-29.8,35.7-46.7C738.9,609.1,734.5,609.6,729.8,609.6   z" style="fill: #000000; fill-opacity: 1;"></path></svg></svg>
